<svg clip-rule="evenodd" fill-rule="evenodd" stroke-linejoin="round" stroke-miterlimit="2" viewBox="0 0 560 400" xmlns="http://www.w3.org/2000/svg">
    <path d="m232.494 270.824 25.452-53.529c-19.44-4.127-39-16.146-50.062-30.77l-26.615 55.932c14.79 12.54 32.547 22.397 51.225 28.367" fill="#1a007f"/>
    <path d="M338.711 184.922c-12.786 15.666-30.542 27.285-49.54 31.812l25.371 53.369c18.518-6.25 35.833-16.347 50.784-29.289z" fill="#4e000a"/>
    <path d="m181.27 242.457-13.308 27.966c-6.774 14.224-1.683 31.733 12.265 39.145 14.79 7.853 32.988 1.723 40.122-13.222l12.145-25.522a151.817 151.817 0 0 1-51.225-28.367" fill="#1a007f"/>
    <path d="M391.54 123.86a29.34 29.34 0 0 0-5.736-.568c-13.88 0-25.937 9.884-28.655 23.487-2.806 14.023-9.379 27.085-18.438 38.183l26.575 55.932c24.53-21.275 42.647-50.243 49.14-82.656 3.167-15.866-7.094-31.252-22.886-34.377" fill="#ff9396"/>
    <path d="M289.17 216.734c-5.692 1.363-11.503 2.084-17.315 2.084-4.53 0-9.22-.521-13.909-1.523-19.44-4.127-39-16.146-50.062-30.77-2.766-3.647-5.01-7.453-6.574-11.34-6.052-14.944-23.087-22.156-38.037-16.146-14.951 6.05-22.166 23.078-16.154 38.023 6.855 16.988 18.96 32.574 34.15 45.395a151.705 151.705 0 0 0 51.185 28.367c12.866 4.127 26.214 6.41 39.36 6.41 14.59 0 28.98-2.524 42.688-7.131z" fill="#002dc8"/>
    <path d="m379.315 270.303-14.03-29.489-26.574-55.892-.04.04s0-.04.04-.04l-38.639-81.254C295.24 93.51 284.95 87.008 273.698 87c-11.263 0-21.524 6.49-26.373 16.668l-39.401 82.856c11.063 14.625 30.623 26.644 50.062 30.771l12.746-26.764c1.203-2.524 4.81-2.524 6.013 0l12.465 26.203h.08-.08l25.372 53.369 12.466 26.203c4.83 10.177 15.143 16.687 26.414 16.667 2.605 0 5.21-.36 7.776-1.081 17.596-4.848 25.933-25.082 18.077-41.59" fill="#ff536a"/>
    <path d="m232.494 270.824 25.452-53.529c-19.44-4.127-39-16.146-50.062-30.77l-26.615 55.932c14.79 12.54 32.547 22.397 51.225 28.367" fill="#1a007f"/>
    <path d="M338.711 184.922c-12.786 15.666-30.542 27.285-49.54 31.812l25.371 53.369c18.518-6.25 35.833-16.347 50.784-29.289z" fill="#4e000a"/>
    <path d="m181.27 242.457-13.308 27.966c-6.774 14.224-1.683 31.733 12.265 39.145 14.79 7.853 32.988 1.723 40.122-13.222l12.145-25.522a151.817 151.817 0 0 1-51.225-28.367" fill="#1a007f"/>
    <path d="M391.54 123.86a29.34 29.34 0 0 0-5.736-.568c-13.88 0-25.937 9.884-28.655 23.487-2.806 14.023-9.379 27.085-18.438 38.183l26.575 55.932c24.53-21.275 42.647-50.243 49.14-82.656 3.167-15.866-7.094-31.252-22.886-34.377" fill="#ff9396"/>
    <path d="M289.17 216.734c-5.692 1.363-11.503 2.084-17.315 2.084-4.53 0-9.22-.521-13.909-1.523-19.44-4.127-39-16.146-50.062-30.77-2.766-3.647-5.01-7.453-6.574-11.34-6.052-14.944-23.087-22.156-38.037-16.146-14.951 6.05-22.166 23.078-16.154 38.023 6.855 16.988 18.96 32.574 34.15 45.395a151.705 151.705 0 0 0 51.185 28.367c12.866 4.127 26.214 6.41 39.36 6.41 14.59 0 28.98-2.524 42.688-7.131z" fill="#002dc8"/>
    <path d="m379.315 270.303-14.03-29.489-26.574-55.892-.04.04s0-.04.04-.04l-38.639-81.254C295.24 93.51 284.95 87.008 273.698 87c-11.263 0-21.524 6.49-26.373 16.668l-39.401 82.856c11.063 14.625 30.623 26.644 50.062 30.771l12.746-26.764c1.203-2.524 4.81-2.524 6.013 0l12.465 26.203h.08-.08l25.372 53.369 12.466 26.203c4.83 10.177 15.143 16.687 26.414 16.667 2.605 0 5.21-.36 7.776-1.081 17.596-4.848 25.933-25.082 18.077-41.59" fill="#ff536a"/>
</svg>
