<?xml version="1.0" encoding="UTF-8" standalone="no"?>
<!-- Created with Inkscape (http://www.inkscape.org/) -->

<svg
   width="15.000mm"
   height="15.000mm"
   viewBox="0 0 15.000 15.000"
   version="1.1"
   id="svg1"
   xml:space="preserve"
   inkscape:export-filename="bitmap.svg"
   inkscape:export-xdpi="170"
   inkscape:export-ydpi="170"
   xmlns:inkscape="http://www.inkscape.org/namespaces/inkscape"
   xmlns:sodipodi="http://sodipodi.sourceforge.net/DTD/sodipodi-0.dtd"
   xmlns="http://www.w3.org/2000/svg"
   xmlns:svg="http://www.w3.org/2000/svg"><sodipodi:namedview
     id="namedview1"
     pagecolor="#010d13"
     bordercolor="#eeeeee"
     borderopacity="1"
     inkscape:showpageshadow="0"
     inkscape:pageopacity="0"
     inkscape:pagecheckerboard="0"
     inkscape:deskcolor="#010d13"
     inkscape:document-units="mm"
     showgrid="true"
     showguides="true"><inkscape:grid
       id="grid5"
       units="mm"
       originx="-472.44096"
       originy="-529.13384"
       spacingx="0.99999998"
       spacingy="1"
       empcolor="#0099e5"
       empopacity="0.30196078"
       color="#0099e5"
       opacity="0.14901961"
       empspacing="5"
       dotted="false"
       gridanglex="30"
       gridanglez="30"
       visible="true" /></sodipodi:namedview><defs
     id="defs1" /><g
     inkscape:groupmode="layer"
     id="layer4"
     inkscape:label="github"
     transform="matrix(1.0003537,0,0,1.0003635,-125.03978,-140.05352)"
     inkscape:export-filename="github.svg"
     inkscape:export-xdpi="170"
     inkscape:export-ydpi="170"><path
       fill-rule="evenodd"
       clip-rule="evenodd"
       d="m 112.49996,140.25263 c -1.72061,-9.1e-4 -3.38536,0.62643 -4.69612,1.76965 -1.31078,1.14323 -2.18199,2.7277 -2.45762,4.4697 -0.27564,1.74199 0.0624,3.52773 0.9533,5.03745 0.89099,1.50974 2.27686,2.64487 3.90944,3.2021 0.36388,0.0691 0.49527,-0.15894 0.49527,-0.34553 0,-0.18663 0,-0.64274 0,-1.26131 -2.02146,0.44922 -2.43923,-0.99522 -2.43923,-0.99522 -0.13372,-0.45702 -0.42463,-0.84872 -0.81869,-1.1023 -0.65698,-0.4596 0.0505,-0.4527 0.0505,-0.4527 0.22948,0.0329 0.44862,0.11917 0.6407,0.25211 0.19208,0.13294 0.35207,0.3091 0.46774,0.51503 0.64686,1.13688 1.68453,0.80862 2.10906,0.61855 0.0335,-0.37749 0.19715,-0.73035 0.46155,-0.99521 -1.61043,-0.1866 -3.30172,-0.82242 -3.30172,-3.66981 -0.011,-0.7387 0.2573,-1.45306 0.74796,-1.9939 -0.22293,-0.64049 -0.1976,-1.34433 0.0708,-1.96623 0,0 0.60641,-0.2004 1.99112,0.76023 1.18672,-0.33172 2.43839,-0.33172 3.62515,0 1.3847,-0.96063 1.99114,-0.76023 1.99114,-0.76023 0.26629,0.62239 0.29158,1.32543 0.0709,1.96623 0.48971,0.54119 0.75651,1.25562 0.74456,1.9939 0,2.85431 -1.68454,3.47978 -3.3051,3.66636 0.17387,0.18071 0.3078,0.39768 0.39269,0.63618 0.085,0.23852 0.11872,0.49294 0.0991,0.74608 0,0.99173 0,1.79343 0,2.03878 0,0.24533 0.13143,0.42849 0.49866,0.34556 1.6309,-0.55942 3.01456,-1.69575 3.90346,-3.20567 0.88892,-1.50993 1.22505,-3.295 0.94831,-5.03583 -0.27673,-1.74088 -1.14829,-3.32395 -2.45878,-4.46609 -1.31048,-1.14213 -2.97441,-1.76879 -4.69411,-1.76788 z"
       stroke="#010d13"
       stroke-width="0.656166"
       stroke-linecap="round"
       stroke-linejoin="round"
       id="path1-0"
       style="fill:none;stroke-width:0.5;stroke-dasharray:none"
       inkscape:export-filename="bitmap.svg"
       inkscape:export-xdpi="203.19998"
       inkscape:export-ydpi="203.19998" /></g><g
     inkscape:groupmode="layer"
     id="layer5"
     inkscape:label="cv"
     transform="matrix(1.0004307,0,0,1.0004384,-104.53039,-151.89476)"><g
       id="g9"
       transform="matrix(0.52448101,0,0,0.52579446,73.113418,80.619914)"
       style="stroke-width:1.05536;stroke-dasharray:none"><g
         id="g11"><path
           d="m 112.48973,152.22233 v -3.11558"
           stroke="#010d13"
           stroke-width="0.550333"
           stroke-linecap="round"
           stroke-linejoin="round"
           id="path1"
           style="fill:none;stroke-width:1.05536;stroke-dasharray:none" /><path
           d="m 110.94036,150.97609 1.23949,1.24621 c 0.17111,0.17206 0.44863,0.17206 0.61973,0 l 1.2395,-1.24621"
           stroke="#010d13"
           stroke-width="0.550333"
           stroke-linecap="round"
           stroke-linejoin="round"
           id="path2"
           style="fill:none;stroke-width:1.05536;stroke-dasharray:none" /><path
           d="m 116.66472,146.12979 c 0.40264,0.40479 0.60394,0.6072 0.71001,0.86456 0.10599,0.25738 0.10599,0.54361 0.10599,1.11606 v 5.14213 c 0,1.3204 0,1.98061 -0.40798,2.39082 -0.40802,0.41021 -1.06463,0.41021 -2.37792,0.41021 h -4.17886 c -1.31327,0 -1.96992,0 -2.3779,-0.41021 -0.40799,-0.41021 -0.40799,-1.07042 -0.40799,-2.39082 v -7.0026 c 0,-1.32043 0,-1.98064 0.40799,-2.39084 0.40798,-0.41021 1.06463,-0.41021 2.3779,-0.41021 h 2.32839 c 0.56938,0 0.8541,0 1.11006,0.10661 0.25601,0.10661 0.45731,0.30901 0.85992,0.7138 z"
           stroke="#010d13"
           stroke-width="0.618469"
           stroke-linejoin="round"
           id="path3"
           style="fill:none;stroke-width:1.05536;stroke-dasharray:none" /></g></g><path
       d="m 131.97355,166.57174 c 4.00224,0 7.24677,-3.24452 7.24677,-7.24676 0,-4.00229 -3.24453,-7.24678 -7.24677,-7.24678 -4.00227,0 -7.24677,3.24449 -7.24677,7.24678 0,4.00224 3.2445,7.24676 7.24677,7.24676 z"
       stroke="#010d13"
       stroke-width="2.416"
       stroke-linejoin="round"
       id="path4-4"
       style="fill:none;stroke-width:0.5;stroke-dasharray:none" /></g><g
     inkscape:groupmode="layer"
     id="layer6"
     inkscape:label="telegram"
     transform="matrix(1.0158369,0,0,1.0002528,-127.09839,-140.15234)"><path
       fill-rule="evenodd"
       clip-rule="evenodd"
       d="m 139.63493,147.6151 c 0,4.00403 -3.19446,7.25002 -7.13492,7.25002 -3.94052,0 -7.13495,-3.24599 -7.13495,-7.25002 0,-4.00409 3.19443,-7.25004 7.13495,-7.25004 3.94046,0 7.13492,3.24595 7.13492,7.25004 z m -6.87929,-1.89774 c -0.69393,0.29328 -2.08093,0.90035 -4.1609,1.82115 -0.33776,0.13652 -0.51469,0.27006 -0.53081,0.40058 -0.0272,0.22071 0.24471,0.30754 0.61498,0.42588 0.0504,0.0161 0.10256,0.0327 0.15604,0.0504 0.36433,0.12032 0.85435,0.26112 1.1091,0.26672 0.23108,0.005 0.489,-0.0916 0.77377,-0.29045 1.94336,-1.33298 2.9466,-2.00672 3.00952,-2.02131 0.0444,-0.0106 0.10605,-0.0232 0.14777,0.0147 0.0417,0.0377 0.0377,0.10904 0.0331,0.12817 -0.027,0.11673 -1.09431,1.12506 -1.6467,1.64684 -0.17215,0.16268 -0.2943,0.27803 -0.31927,0.30442 -0.056,0.059 -0.1129,0.11483 -0.16775,0.16849 -0.3384,0.33156 -0.59227,0.58016 0.0141,0.98617 0.29135,0.19511 0.5245,0.35639 0.7571,0.51734 0.25399,0.17581 0.50738,0.35113 0.8352,0.56952 0.0836,0.0555 0.16328,0.11343 0.24096,0.16962 0.29562,0.21419 0.56117,0.4066 0.88931,0.37585 0.19065,-0.0177 0.38755,-0.19995 0.48759,-0.74326 0.23639,-1.284 0.70102,-4.06605 0.80838,-5.21243 0.009,-0.10037 -0.002,-0.22896 -0.012,-0.28538 -0.009,-0.0565 -0.0293,-0.13684 -0.10151,-0.19636 -0.0856,-0.0705 -0.21743,-0.0853 -0.27643,-0.0844 -0.26837,0.005 -0.68012,0.15034 -2.66156,0.98779 z"
       stroke="#010d13"
       stroke-width="0.726249"
       stroke-linejoin="round"
       id="path1-1"
       clip-path="url(#clipPath2)"
       style="fill:none;stroke-width:0.496281;stroke-dasharray:none" /></g><g
     inkscape:groupmode="layer"
     id="layer7"
     inkscape:label="linkedin"
     inkscape:export-filename="cv.svg"
     inkscape:export-xdpi="170"
     inkscape:export-ydpi="170"
     transform="translate(-125,-140)"><g
       id="g10"
       transform="matrix(1.0960475,0,0,1.0960547,-13.420254,-7.5073997)"
       style="stroke-width:0.45638;stroke-dasharray:none"><path
         d="m 21.2691,20.4388 h -4.9453 c -0.455,0 -0.8243,0.3693 -0.8243,0.8243 V 39.396 c 0,0.4549 0.3693,0.8242 0.8243,0.8242 h 4.9453 c 0.455,0 0.8242,-0.3693 0.8242,-0.8242 V 21.2631 c 0,-0.455 -0.3692,-0.8243 -0.8242,-0.8243 z M 20.4449,38.5717 H 17.148 V 22.0873 h 3.2969 z"
         fill="#010d13"
         stroke="#010d13"
         stroke-width="0.603999"
         id="path1-6"
         style="fill:#010d13000000;fill-opacity:1;stroke-width:0;stroke-dasharray:none"
         transform="matrix(0.26458333,0,0,0.26458333,89.494633,134.27935)" /><path
         d="m 18.7964,12.1967 c -1.8182,0 -3.2969,1.4786 -3.2969,3.2968 0,1.8183 1.4787,3.2969 3.2969,3.2969 1.8183,0 3.2969,-1.4786 3.2969,-3.2969 0,-1.8182 -1.4786,-3.2968 -3.2969,-3.2968 z m 0,4.9453 c -0.9099,0 -1.6484,-0.7402 -1.6484,-1.6485 0,-0.9082 0.7385,-1.6484 1.6484,-1.6484 0.91,0 1.6485,0.7402 1.6485,1.6484 0,0.9083 -0.7385,1.6485 -1.6485,1.6485 z"
         fill="#010d13"
         stroke="#010d13"
         stroke-width="0.603999"
         id="path2-2"
         style="fill:#010d13000000;fill-opacity:1;stroke-width:0;stroke-dasharray:none"
         transform="matrix(0.26458333,0,0,0.26458333,89.494633,134.27935)" /><path
         d="m 32.833,20.4156 c -0.8803,0 -1.8084,0.1962 -2.5617,0.5276 -0.1237,-0.2968 -0.4187,-0.5045 -0.76,-0.5045 H 24.566 c -0.455,0 -0.8242,0.3693 -0.8242,0.8242 v 18.1329 c 0,0.455 0.3692,0.8243 0.8242,0.8243 h 4.9453 c 0.455,0 0.8243,-0.3693 0.8243,-0.8243 L 30.3323,28.4156 c 0,-0.005 -0.0198,-0.5539 0.3297,-0.9314 0.2752,-0.3 0.7451,-0.4517 1.3945,-0.4517 1.0748,0 1.576,0.4599 1.576,1.449 v 10.9143 c 0,0.455 0.3692,0.8243 0.8242,0.8243 h 4.9453 c 0.455,0 0.8242,-0.3693 0.8242,-0.8243 V 28.1172 c 0,-5.6839 -3.9826,-7.7016 -7.3932,-7.7016 z m 5.7448,18.156 H 35.2809 V 28.4815 c 0,-1.9106 -1.2347,-3.0974 -3.2244,-3.0974 -1.1275,0 -2.0045,0.3297 -2.6061,0.9808 -0.8358,0.905 -0.7715,2.0539 -0.7633,2.1166 V 38.5716 H 25.3902 V 22.0872 h 3.2969 v 0.5852 c 0,0.4549 0.3693,0.8242 0.8242,0.8242 0.4039,0 0.7385,-0.2901 0.8094,-0.6726 0.2209,-0.2406 1.1902,-0.7583 2.5106,-0.7583 1.3468,0 5.7448,0.4369 5.7448,6.0515 z"
         fill="#010d13"
         stroke="#010d13"
         stroke-width="0.603999"
         id="path3-4"
         style="fill:#010d13000000;fill-opacity:1;stroke-width:0;stroke-dasharray:none"
         transform="matrix(0.26458333,0,0,0.26458333,89.494633,134.27935)" /><path
         d="M 27,52 C 40.807,52 52,40.807 52,27 52,13.1929 40.807,2 27,2 13.1929,2 2,13.1929 2,27 2,40.807 13.1929,52 27,52 Z"
         stroke="#010d13"
         stroke-width="2.416"
         stroke-linejoin="round"
         id="path4"
         style="fill:none;stroke-width:1.7249;stroke-dasharray:none"
         transform="matrix(0.26458333,0,0,0.26458333,89.494633,134.27935)" /></g></g></svg>
