<svg width="56.693" height="56.693" viewBox="0 0 15 15" xml:space="preserve" xmlns="http://www.w3.org/2000/svg">
    <g style="stroke-width:.45638;stroke-dasharray:none">
        <path d="M21.27 20.439h-4.946a.825.825 0 0 0-.824.824v18.133c0 .455.369.824.824.824h4.945c.455 0 .824-.37.824-.824V21.263a.825.825 0 0 0-.824-.824zm-.825 18.133h-3.297V22.087h3.297zM18.796 12.197a3.3 3.3 0 0 0-3.297 3.297 3.3 3.3 0 0 0 3.297 3.296 3.3 3.3 0 0 0 3.297-3.296 3.3 3.3 0 0 0-3.297-3.297zm0 4.945a1.65 1.65 0 0 1-1.648-1.649 1.65 1.65 0 0 1 1.648-1.648c.91 0 1.649.74 1.649 1.648a1.65 1.65 0 0 1-1.649 1.649zM32.833 20.416c-.88 0-1.808.196-2.562.527a.823.823 0 0 0-.76-.504h-4.945a.825.825 0 0 0-.824.824v18.133c0 .455.369.824.824.824h4.945c.455 0 .825-.37.825-.824l-.004-10.98c0-.005-.02-.554.33-.932.275-.3.745-.452 1.395-.452 1.074 0 1.575.46 1.575 1.45v10.914c0 .455.37.824.825.824h4.945c.455 0 .824-.37.824-.824V28.117c0-5.684-3.982-7.701-7.393-7.701zm5.745 18.156H35.28v-10.09c0-1.911-1.235-3.098-3.224-3.098-1.128 0-2.005.33-2.607.98-.835.906-.771 2.055-.763 2.117v10.09H25.39V22.088h3.297v.585a.825.825 0 0 0 1.634.152c.22-.24 1.19-.758 2.51-.758 1.347 0 5.745.437 5.745 6.051z" fill="#010d13" style="fill:#010d13000000;fill-opacity:1;stroke-width:0;stroke-dasharray:none" transform="matrix(.29 0 0 .29 -.33 -.33)"/>
        <path d="M27 52c13.807 0 25-11.193 25-25S40.807 2 27 2 2 13.193 2 27s11.193 25 25 25Z" stroke="#010d13" stroke-width="2.416" stroke-linejoin="round" style="fill:none;stroke-width:1.7249;stroke-dasharray:none" transform="matrix(.29 0 0 .29 -.33 -.33)"/>
    </g>
</svg>
