<svg width="56.693" height="56.693" viewBox="0 0 15 15" xmlns="http://www.w3.org/2000/svg">
    <path clip-rule="evenodd" d="M112.5 140.253c-1.72-.001-3.385.626-4.696 1.77a7.478 7.478 0 0 0-2.458 4.469 7.59 7.59 0 0 0 .954 5.037 7.28 7.28 0 0 0 3.909 3.203c.364.069.495-.16.495-.346v-1.261c-2.021.449-2.439-.996-2.439-.996a1.965 1.965 0 0 0-.819-1.102c-.657-.46.05-.453.05-.453.23.033.45.12.642.253s.352.309.467.515c.647 1.136 1.685.808 2.11.618a1.61 1.61 0 0 1 .46-.995c-1.61-.187-3.3-.822-3.3-3.67a2.905 2.905 0 0 1 .747-1.994 2.717 2.717 0 0 1 .07-1.966s.607-.2 1.992.76a6.727 6.727 0 0 1 3.625 0c1.385-.96 1.991-.76 1.991-.76a2.74 2.74 0 0 1 .071 1.966c.49.541.757 1.256.745 1.994 0 2.854-1.685 3.48-3.305 3.667a1.807 1.807 0 0 1 .492 1.382v2.039c0 .245.13.428.498.345a7.28 7.28 0 0 0 3.904-3.206 7.589 7.589 0 0 0 .948-5.035 7.478 7.478 0 0 0-2.459-4.466 7.136 7.136 0 0 0-4.694-1.768z" stroke="#010d13" stroke-width=".656" stroke-linecap="round" stroke-linejoin="round" style="fill:none;stroke-width:.5;stroke-dasharray:none" transform="matrix(1.00035 0 0 1.00036 -125.04 -140.054)"/>
    <g stroke="#010d13" stroke-linejoin="round" style="stroke-width:1.05536;stroke-dasharray:none">
        <path d="M112.49 152.222v-3.115M110.94 150.976l1.24 1.246a.437.437 0 0 0 .62 0l1.24-1.246" stroke-width=".55" stroke-linecap="round" style="fill:none;stroke-width:1.05536;stroke-dasharray:none" transform="matrix(.5247 0 0 .52602 -31.385 -71.24)"/>
        <path d="M116.665 146.13c.402.405.604.607.71.864.106.258.106.544.106 1.116v5.143c0 1.32 0 1.98-.408 2.39-.408.41-1.065.41-2.378.41h-4.179c-1.313 0-1.97 0-2.378-.41-.408-.41-.408-1.07-.408-2.39v-7.003c0-1.32 0-1.98.408-2.39.408-.411 1.065-.411 2.378-.411h2.328c.57 0 .854 0 1.11.107.256.106.458.309.86.713z" stroke-width=".618" style="fill:none;stroke-width:1.05536;stroke-dasharray:none" transform="matrix(.5247 0 0 .52602 -31.385 -71.24)"/>
    </g>
    <path d="M131.974 166.572a7.247 7.247 0 1 0 0-14.494 7.247 7.247 0 0 0 0 14.494z" stroke="#010d13" stroke-width="2.416" stroke-linejoin="round" style="fill:none;stroke-width:.5;stroke-dasharray:none" transform="matrix(1.00043 0 0 1.00044 -104.53 -151.895)"/>
    <path clip-rule="evenodd" d="M139.635 147.615c0 4.004-3.195 7.25-7.135 7.25s-7.135-3.246-7.135-7.25 3.194-7.25 7.135-7.25c3.94 0 7.135 3.246 7.135 7.25zm-6.88-1.898c-.693.294-2.08.9-4.16 1.822-.338.136-.515.27-.531.4-.027.22.245.308.615.426l.156.05c.364.12.854.261 1.109.267.231.005.49-.092.774-.29 1.943-1.333 2.946-2.007 3.01-2.022.044-.01.105-.023.147.015.042.038.038.11.033.128-.027.117-1.094 1.125-1.646 1.647-.173.163-.295.278-.32.304a6.38 6.38 0 0 1-.168.169c-.338.332-.592.58.015.986.29.195.524.357.757.517.254.176.507.352.835.57.083.055.163.113.24.17.296.214.562.406.89.375.19-.017.388-.2.488-.743.236-1.284.7-4.066.808-5.212.01-.1-.002-.23-.012-.286a.304.304 0 0 0-.101-.196.465.465 0 0 0-.277-.084c-.268.005-.68.15-2.661.987z" stroke="#010d13" stroke-width=".726" stroke-linejoin="round" clip-path="url(#clipPath2)" style="fill:none;stroke-width:.496281;stroke-dasharray:none" transform="matrix(1.01584 0 0 1.00025 -127.098 -140.152)"/>
    <g style="stroke-width:.45638;stroke-dasharray:none">
        <path d="M21.27 20.439h-4.946a.825.825 0 0 0-.824.824v18.133c0 .455.369.824.824.824h4.945c.455 0 .824-.37.824-.824V21.263a.825.825 0 0 0-.824-.824zm-.825 18.133h-3.297V22.087h3.297zM18.796 12.197a3.3 3.3 0 0 0-3.297 3.297 3.3 3.3 0 0 0 3.297 3.296 3.3 3.3 0 0 0 3.297-3.296 3.3 3.3 0 0 0-3.297-3.297zm0 4.945a1.65 1.65 0 0 1-1.648-1.649 1.65 1.65 0 0 1 1.648-1.648c.91 0 1.649.74 1.649 1.648a1.65 1.65 0 0 1-1.649 1.649zM32.833 20.416c-.88 0-1.808.196-2.562.527a.823.823 0 0 0-.76-.504h-4.945a.825.825 0 0 0-.824.824v18.133c0 .455.369.824.824.824h4.945c.455 0 .825-.37.825-.824l-.004-10.98c0-.005-.02-.554.33-.932.275-.3.745-.452 1.395-.452 1.074 0 1.575.46 1.575 1.45v10.914c0 .455.37.824.825.824h4.945c.455 0 .824-.37.824-.824V28.117c0-5.684-3.982-7.701-7.393-7.701zm5.745 18.156H35.28v-10.09c0-1.911-1.235-3.098-3.224-3.098-1.128 0-2.005.33-2.607.98-.835.906-.771 2.055-.763 2.117v10.09H25.39V22.088h3.297v.585a.825.825 0 0 0 1.634.152c.22-.24 1.19-.758 2.51-.758 1.347 0 5.745.437 5.745 6.051z" fill="#010d13" style="fill:#010d13000000;fill-opacity:1;stroke-width:0;stroke-dasharray:none" transform="matrix(.29 0 0 .29 -40.33 -.33)"/>
        <path d="M27 52c13.807 0 25-11.193 25-25S40.807 2 27 2 2 13.193 2 27s11.193 25 25 25Z" stroke="#010d13" stroke-width="2.416" stroke-linejoin="round" style="fill:none;stroke-width:1.7249;stroke-dasharray:none" transform="matrix(.29 0 0 .29 -40.33 -.33)"/>
    </g>
</svg>
