<?xml version="1.0" encoding="UTF-8" standalone="no"?>
<!-- Created with Inkscape (http://www.inkscape.org/) -->

<svg
   width="15.000mm"
   height="15.000mm"
   viewBox="0 0 15.000 15.000"
   version="1.1"
   id="svg1"
   xml:space="preserve"
   inkscape:export-filename="bitmap.svg"
   inkscape:export-xdpi="170"
   inkscape:export-ydpi="170"
   xmlns:inkscape="http://www.inkscape.org/namespaces/inkscape"
   xmlns:sodipodi="http://sodipodi.sourceforge.net/DTD/sodipodi-0.dtd"
   xmlns="http://www.w3.org/2000/svg"
   xmlns:svg="http://www.w3.org/2000/svg"><sodipodi:namedview
     id="namedview1"
     pagecolor="#505050"
     bordercolor="#eeeeee"
     borderopacity="1"
     inkscape:showpageshadow="0"
     inkscape:pageopacity="0"
     inkscape:pagecheckerboard="0"
     inkscape:deskcolor="#505050"
     inkscape:document-units="mm"
     showgrid="true"
     showguides="true"><inkscape:grid
       id="grid5"
       units="mm"
       originx="-321.25982"
       originy="-529.13384"
       spacingx="0.99999998"
       spacingy="1"
       empcolor="#0099e5"
       empopacity="0.30196078"
       color="#0099e5"
       opacity="0.14901961"
       empspacing="5"
       dotted="false"
       gridanglex="30"
       gridanglez="30"
       visible="true" /></sodipodi:namedview><defs
     id="defs1" /><g
     inkscape:groupmode="layer"
     id="layer7"
     inkscape:label="linkedin"
     inkscape:export-filename="cv.svg"
     inkscape:export-xdpi="170"
     inkscape:export-ydpi="170"
     transform="translate(-84.999994,-140)"><g
       id="g10"
       transform="matrix(1.0960475,0,0,1.0960547,-13.420254,-7.5073997)"
       style="stroke-width:0.45638;stroke-dasharray:none"><path
         d="m 21.2691,20.4388 h -4.9453 c -0.455,0 -0.8243,0.3693 -0.8243,0.8243 V 39.396 c 0,0.4549 0.3693,0.8242 0.8243,0.8242 h 4.9453 c 0.455,0 0.8242,-0.3693 0.8242,-0.8242 V 21.2631 c 0,-0.455 -0.3692,-0.8243 -0.8242,-0.8243 z M 20.4449,38.5717 H 17.148 V 22.0873 h 3.2969 z"
         fill="#010d13"
         stroke="#010d13"
         stroke-width="0.603999"
         id="path1-6"
         style="fill:#000000;fill-opacity:1;stroke-width:0;stroke-dasharray:none"
         transform="matrix(0.26458333,0,0,0.26458333,89.494633,134.27935)" /><path
         d="m 18.7964,12.1967 c -1.8182,0 -3.2969,1.4786 -3.2969,3.2968 0,1.8183 1.4787,3.2969 3.2969,3.2969 1.8183,0 3.2969,-1.4786 3.2969,-3.2969 0,-1.8182 -1.4786,-3.2968 -3.2969,-3.2968 z m 0,4.9453 c -0.9099,0 -1.6484,-0.7402 -1.6484,-1.6485 0,-0.9082 0.7385,-1.6484 1.6484,-1.6484 0.91,0 1.6485,0.7402 1.6485,1.6484 0,0.9083 -0.7385,1.6485 -1.6485,1.6485 z"
         fill="#010d13"
         stroke="#010d13"
         stroke-width="0.603999"
         id="path2-2"
         style="fill:#000000;fill-opacity:1;stroke-width:0;stroke-dasharray:none"
         transform="matrix(0.26458333,0,0,0.26458333,89.494633,134.27935)" /><path
         d="m 32.833,20.4156 c -0.8803,0 -1.8084,0.1962 -2.5617,0.5276 -0.1237,-0.2968 -0.4187,-0.5045 -0.76,-0.5045 H 24.566 c -0.455,0 -0.8242,0.3693 -0.8242,0.8242 v 18.1329 c 0,0.455 0.3692,0.8243 0.8242,0.8243 h 4.9453 c 0.455,0 0.8243,-0.3693 0.8243,-0.8243 L 30.3323,28.4156 c 0,-0.005 -0.0198,-0.5539 0.3297,-0.9314 0.2752,-0.3 0.7451,-0.4517 1.3945,-0.4517 1.0748,0 1.576,0.4599 1.576,1.449 v 10.9143 c 0,0.455 0.3692,0.8243 0.8242,0.8243 h 4.9453 c 0.455,0 0.8242,-0.3693 0.8242,-0.8243 V 28.1172 c 0,-5.6839 -3.9826,-7.7016 -7.3932,-7.7016 z m 5.7448,18.156 H 35.2809 V 28.4815 c 0,-1.9106 -1.2347,-3.0974 -3.2244,-3.0974 -1.1275,0 -2.0045,0.3297 -2.6061,0.9808 -0.8358,0.905 -0.7715,2.0539 -0.7633,2.1166 V 38.5716 H 25.3902 V 22.0872 h 3.2969 v 0.5852 c 0,0.4549 0.3693,0.8242 0.8242,0.8242 0.4039,0 0.7385,-0.2901 0.8094,-0.6726 0.2209,-0.2406 1.1902,-0.7583 2.5106,-0.7583 1.3468,0 5.7448,0.4369 5.7448,6.0515 z"
         fill="#010d13"
         stroke="#010d13"
         stroke-width="0.603999"
         id="path3-4"
         style="fill:#000000;fill-opacity:1;stroke-width:0;stroke-dasharray:none"
         transform="matrix(0.26458333,0,0,0.26458333,89.494633,134.27935)" /><path
         d="M 27,52 C 40.807,52 52,40.807 52,27 52,13.1929 40.807,2 27,2 13.1929,2 2,13.1929 2,27 2,40.807 13.1929,52 27,52 Z"
         stroke="#010d13"
         stroke-width="2.416"
         stroke-linejoin="round"
         id="path4"
         style="fill:none;stroke-width:1.7249;stroke-dasharray:none"
         transform="matrix(0.26458333,0,0,0.26458333,89.494633,134.27935)" /></g></g></svg>
